<?xml version="1.0" encoding="utf-8"?>
<!-- Generator: Adobe Illustrator 23.0.2, SVG Export Plug-In . SVG Version: 6.00 Build 0)  -->
<svg version="1.1" id="Layer_1" xmlns="http://www.w3.org/2000/svg" xmlns:xlink="http://www.w3.org/1999/xlink" x="0px" y="0px"
	 viewBox="0 0 1000 1000" style="enable-background:new 0 0 1000 1000;" xml:space="preserve">
<style type="text/css">
	.st0{fill:#FFFFFF;stroke:#000000;stroke-miterlimit:10;}
	.st1{stroke:#000000;stroke-miterlimit:10;}
</style>
<path class="st0" d="M935.5,72.5"/>
<path class="st0" d="M158.5,109.5"/>
<path class="st1" d="M358.5,109.5h-40c-77.3,0-140,62.7-140,140v640h40c77.3,0,140-62.7,140-140V109.5z"/>
<path class="st1" d="M358.5,109.5h482v40c0,77.3-62.7,140-140,140h-342V109.5z"/>
<path class="st1" d="M358.5,443.9h482v24.5c0,47.9-38.8,86.8-86.8,86.8H358.5V443.9z"/>
<path class="st1" d="M801,592h40V750c0,77.3-62.7,140-140,140h-40V732C661,654.7,723.7,592,801,592z"/>
</svg>
